<?xml version="1.0" encoding="UTF-8"?>
<svg width="581px" height="800px" viewBox="0 0 581 800" version="1.1" xmlns="http://www.w3.org/2000/svg" xmlns:xlink="http://www.w3.org/1999/xlink">
    <title>Group 2</title>
    <g id="Page-1" stroke="none" stroke-width="1" fill="none" fill-rule="evenodd">
        <g id="The-Donde-Logo" transform="translate(-241.000000, -73.000000)">
            <g id="Group-2" transform="translate(241.000000, 73.000000)">
                <path d="M269.201459,799.167637 C301.31466,799.167637 323.719218,776.01626 323.719218,743.90306 C323.719218,717.764409 314.010576,695.35985 298.327385,677.436203 C295.340111,624.412082 310.276483,572.134779 350.604688,536.287485 C385.705163,504.921104 420.805638,472.807903 420.805638,419.036963 C420.805638,318.21645 321.478762,235.319584 222.151887,235.319584 C160.91276,235.319584 72.0413455,274.900971 72.0413455,368.253297 C72.0413455,421.277419 87.7245364,448.909708 120.584555,477.288815 C144.482751,497.452918 166.887309,520.604295 166.887309,537.034304 L166.887309,598.27343 L180.330044,618.437533 C164.646854,626.652538 154.191393,647.563459 154.191393,672.208473 C154.191393,737.928511 220.65825,799.167637 269.201459,799.167637 Z M239.328715,585.577514 L180.330044,585.577514 L180.330044,548.983402 C180.330044,467.580173 263.973729,430.986061 263.973729,366.75966 C263.973729,328.671911 246.796901,295.811892 202.734603,295.811892 C162.406398,295.811892 146.723207,330.165548 146.723207,347.342376 C146.723207,357.797837 152.697756,364.519204 164.646854,366.012842 C184.064138,369.000116 199.747328,384.683307 199.747328,409.328321 C199.747328,433.973335 176.595951,460.111987 147.470025,460.111987 C109.382276,460.111987 85.4840805,422.024238 85.4840805,366.75966 C85.4840805,289.090524 152.697756,248.762319 222.151887,248.762319 C292.352836,248.762319 352.098326,288.343706 352.098326,357.797837 C352.098326,412.315596 324.466037,446.669252 298.327385,469.820629 C269.201459,495.212462 240.075534,509.402015 239.328715,585.577514 Z M210.202789,580.349784 C213.936882,557.198407 220.65825,540.021579 234.100985,525.832025 C229.620073,509.402015 232.607347,497.452918 244.556445,475.795178 C255.011906,469.820629 263.226911,469.820629 271.441915,475.795178 C307.289209,449.656526 338.65559,410.07514 338.65559,359.291474 C338.65559,298.052348 292.352836,261.458236 222.151887,261.458236 C133.280472,261.458236 98.179997,318.963269 98.179997,366.75966 C98.179997,417.543326 121.331374,446.669252 147.470025,446.669252 C166.140491,446.669252 187.051412,428.745605 187.051412,409.328321 C187.051412,395.138768 175.849133,381.696032 164.646854,379.455577 C142.989114,374.974665 134.02729,365.266023 134.02729,347.342376 C134.02729,322.697362 155.68503,283.115976 202.734603,283.115976 C257.252362,283.115976 277.416464,321.203725 277.416464,366.75966 C277.416464,406.774202 249.701129,438.210187 221.563465,469.751754 L217.971232,473.77958 L217.971232,473.77958 L216.177338,475.795178 L216.177338,475.795178 C227.379617,469.820629 236.34144,469.820629 243.062808,475.795178 C225.139161,490.73155 207.962333,504.921104 196.013235,525.832025 C203.481421,543.008853 204.975059,557.198407 210.202789,580.349784 Z M244.556445,475.048359 L243.062808,475.048359 C257.252362,456.377894 262.480092,441.441522 264.720548,425.011512 C284.137832,411.568777 305.795572,389.911037 301.31466,321.950543 C316.251032,362.278749 318.491488,395.885586 312.516939,425.011512 C295.340111,441.441522 265.467366,461.605624 244.556445,475.048359 Z M210.949608,722.24532 C187.798231,722.24532 167.634128,700.58758 167.634128,672.208473 C167.634128,644.576184 187.051412,622.171626 210.202789,622.171626 C233.354166,622.171626 254.265087,644.576184 254.265087,672.208473 C254.265087,700.58758 234.100985,722.24532 210.949608,722.24532 Z" id="?" fill="#03AD25" fill-rule="nonzero"></path>
                <g id="Group" transform="translate(290.791180, 187.352456) rotate(-345.000000) translate(-290.791180, -187.352456) translate(23.291180, 65.352456)">
                    <polygon id="Path-2" fill="#FFFFFF" points="125.861289 158.483468 130.397492 218.841427 425.28655 218.841427 418.769466 158.483468"></polygon>
                    <g id="icons8-sombrero" transform="translate(0.000000, 0.000000)" fill="#03AD25" fill-rule="nonzero">
                        <path d="M267.808649,0.846456595 C222.390982,0.846456595 185.639566,67.7860122 185.639566,113.214998 C185.639566,113.214998 200.805534,121.562375 267.808649,121.562375 C334.811763,121.562375 349.977731,113.214998 349.977731,113.214998 C349.977731,67.7860122 313.226336,0.846456595 267.808649,0.846456595 Z M3.32691278,122.846587 C-3.41351981,122.846587 3.32691278,152.865051 21.3013997,180.636123 C26.2764911,176.863745 32.535454,173.572957 41.8436704,173.572957 C56.3676926,173.572957 63.8303298,181.438766 69.4473467,187.057182 C74.5026763,192.113772 77.1506982,194.120348 82.9282119,194.120348 C88.7057255,194.120348 91.3537475,192.113772 96.4090771,187.057182 C102.026114,181.438766 109.488731,173.572957 124.012753,173.572957 C138.536776,173.572957 145.999413,181.438766 151.61643,187.057182 C156.671759,192.113772 159.319781,194.120348 165.097295,194.120348 C170.874808,194.120348 173.52283,192.113772 178.57816,187.057182 C184.195197,181.438766 191.657814,173.572957 206.181836,173.572957 C220.705859,173.572957 228.168496,181.438766 233.785513,187.057182 C238.840842,192.113772 241.488864,194.120348 247.266378,194.120348 C253.043891,194.120348 255.691913,192.113772 260.747243,187.057182 C266.36428,181.438766 273.826897,173.572957 288.350919,173.572957 C302.874941,173.572957 310.337579,181.438766 315.954596,187.057182 C321.009925,192.113772 323.657947,194.120348 329.435461,194.120348 C335.212974,194.120348 337.860996,192.113772 342.916326,187.057182 C348.533363,181.438766 355.99598,173.572957 370.520002,173.572957 C385.044024,173.572957 392.506662,181.438766 398.123679,187.057182 C403.179008,192.113772 405.82703,194.120348 411.604544,194.120348 C417.382057,194.120348 420.030079,192.113772 425.085409,187.057182 C430.702446,181.438766 438.165063,173.572957 452.689085,173.572957 C467.213107,173.572957 474.675745,181.438766 480.292761,187.057182 C485.348091,192.113772 487.996113,194.120348 493.773627,194.120348 C499.55114,194.120348 502.199162,192.113772 507.254492,187.057182 C507.896438,186.415076 508.538384,185.77297 509.18033,185.130864 C530.444785,156.155839 539.512287,122.846587 532.290384,122.846587 C532.290384,122.846587 391.463484,143.393978 267.808649,143.393978 C144.153813,143.393978 3.32691278,122.846587 3.32691278,122.846587 Z M41.8436704,194.120348 C38.3129676,194.120348 35.9056805,194.842712 33.4983729,196.688772 C45.2941351,210.01248 60.5403414,221.088798 78.4345902,224.941433 C78.4345902,224.941433 145.838916,243.562506 267.808649,243.562506 C389.778381,243.562506 457.182707,224.941433 457.182707,224.941433 C466.089712,222.292751 474.033799,218.199321 481.576653,212.74142 C474.43501,210.092738 469.941388,204.955891 466.16995,201.183513 C461.114621,196.126924 458.466599,194.120348 452.689085,194.120348 C446.911572,194.120348 444.26355,196.126924 439.20822,201.183513 C433.591203,206.801951 426.128566,214.667738 411.604544,214.667738 C397.080521,214.667738 389.617905,206.801951 384.000867,201.183513 C378.945538,196.126924 376.297516,194.120348 370.520002,194.120348 C364.742489,194.120348 362.094467,196.126924 357.039137,201.183513 C351.42212,206.801951 343.959483,214.667738 329.435461,214.667738 C314.911439,214.667738 307.448822,206.801951 301.831784,201.183513 C296.776455,196.126924 294.128433,194.120348 288.350919,194.120348 C282.573406,194.120348 279.925384,196.126924 274.870054,201.183513 C269.253037,206.801951 261.7904,214.667738 247.266378,214.667738 C232.742356,214.667738 225.279739,206.801951 219.662701,201.183513 C214.607372,196.126924 211.95935,194.120348 206.181836,194.120348 C200.404323,194.120348 197.756301,196.126924 192.700971,201.183513 C187.083954,206.801951 179.621317,214.667738 165.097295,214.667738 C150.573273,214.667738 143.110656,206.801951 137.493619,201.183513 C132.438289,196.126924 129.790267,194.120348 124.012753,194.120348 C118.23524,194.120348 115.587218,196.126924 110.531888,201.183513 C104.914871,206.801951 97.4522341,214.667738 82.9282119,214.667738 C68.4041897,214.667738 60.941573,206.801951 55.3245356,201.183513 C50.269206,196.126924 47.6211841,194.120348 41.8436704,194.120348 Z" id="Shape"></path>
                    </g>
                </g>
            </g>
        </g>
    </g>
</svg>