<?xml version="1.0" encoding="UTF-8"?>
<svg width="650px" height="449px" viewBox="0 0 650 449" version="1.1" xmlns="http://www.w3.org/2000/svg" xmlns:xlink="http://www.w3.org/1999/xlink">
    <title>Group</title>
    <g id="Page-1" stroke="none" stroke-width="1" fill="none" fill-rule="evenodd">
        <g id="Artboard-Copy-2" transform="translate(-175.000000, -275.000000)" fill="#3A3A3A">
            <g id="Group" transform="translate(175.000000, 275.000000)">
                <text id="BIGOTE" font-family="AvenirNext-Regular, Avenir Next" font-size="176.151762" font-weight="normal">
                    <tspan x="0.264227642" y="385">BIGOTE</tspan>
                </text>
                <g id="mustache-copy" fill-rule="nonzero">
                    <path d="M648.040903,58.5609178 C647.866284,55.4040967 646.44079,52.445839 644.078399,50.3491443 L644.078399,50.3491443 C639.103442,46.0901282 631.628414,46.66226 627.35529,51.6280271 C575.305452,112.206684 538.501179,83.061619 497.734403,50.6856924 C466.840306,26.1176816 433.998537,0 390.67964,0 C376.135908,-0.0792219341 361.746646,2.99851038 348.502481,9.0210385 C339.905862,12.992306 331.994287,18.3080831 325.063263,24.7714893 C318.128882,18.3333242 310.217306,13.0394227 301.624046,9.08834812 C288.379881,3.06582 273.990619,-0.0119123155 259.446887,0.0688592268 C215.926507,0.0688592268 177.308885,26.4542297 141.713512,50.7530021 C129.960323,58.8301563 118.475778,66.6380721 107.595683,72.8978666 C76.5672631,90.7349155 48.7625754,96.0523754 24.2487808,53.8492445 C21.1879145,48.0707138 14.0319013,45.8730547 8.26612252,48.9406906 C4.88120403,50.7429056 2.57757895,54.0764145 2.08562403,57.8878216 C-1.10788538,78.7655826 -0.631041707,100.042153 3.49600673,120.755005 C8.25101128,145.062191 21.7252032,166.77964 41.3748565,181.80483 C60.6181853,195.537674 83.088604,204.0271 106.588266,206.44015 C141.839439,210.21622 177.475109,207.939472 211.964003,199.709188 C237.701808,194.395094 262.569877,185.491714 285.841192,173.256508 C300.438653,165.482247 313.684497,155.38917 325.063263,143.371037 C336.421881,155.281474 349.620713,165.282001 364.151013,172.987269 C387.422327,185.222475 412.290397,194.125855 438.028202,199.43995 C472.517096,207.670233 508.152766,209.946981 543.403938,206.170911 C566.903601,203.756179 589.374019,195.268436 608.617348,181.535591 C628.290508,166.532277 641.771416,144.804732 646.496198,120.485767 C650.574555,100.087587 651.096732,79.1374682 648.040903,58.5609178 Z" id="Path"></path>
                </g>
            </g>
        </g>
    </g>
</svg>