<?xml version="1.0" encoding="UTF-8"?>
<svg width="647px" height="749px" viewBox="0 0 647 749" version="1.1" xmlns="http://www.w3.org/2000/svg" xmlns:xlink="http://www.w3.org/1999/xlink">
    <title>Group 2</title>
    <g id="Page-1" stroke="none" stroke-width="1" fill="none" fill-rule="evenodd">
        <g id="The-Donde-Logo-and-Wordmark" transform="translate(-181.000000, -104.000000)">
            <g id="Group-2" transform="translate(181.960630, 104.000000)">
                <path d="M60.7349081,747.92126 L60.7349081,737.548556 L52,725.947507 L52,684.729659 L60.5984252,696.194226 L73.7007874,696.194226 L73.7007874,658.934383 L63.6010499,645.559055 L0,645.559055 L0,684.729659 L12.6929134,696.194226 L21.7007874,696.194226 L21.7007874,713.937008 C21.7007874,718.713911 20.8818898,722.535433 18.152231,723.081365 L12.9658793,723.900262 L12.9658793,736.456693 L21.7007874,747.92126 L60.7349081,747.92126 Z M48.3149606,734 L15.2860892,734 L15.2860892,726.220472 L19.6535433,725.538058 C23.0656168,724.855643 24.1574803,720.897638 24.1574803,714.619423 L24.1574803,670.944882 C24.1574803,665.75853 23.6115486,657.706037 18.4251969,657.706037 C12.5564304,657.706037 10.5091864,666.577428 10.5091864,674.629921 L10.5091864,682.272966 L2.45669291,682.272966 L2.45669291,648.015748 L61.144357,648.015748 L61.144357,682.272966 L53.0918635,682.272966 L53.0918635,674.629921 C53.0918635,666.577428 51.0446194,657.706037 45.175853,657.706037 C40.0692913,657.706037 39.4614658,665.512667 39.4439721,670.703516 L39.4435696,714.619423 C39.4435696,720.897638 40.5354331,724.855643 44.0839895,725.538058 L48.3149606,726.220472 L48.3149606,734 Z M31.8005249,718.577428 C32.8923885,706.976378 34.3937008,700.698163 36.3044619,696.194226 C34.3937008,694.146982 32.8923885,691.28084 32.0734908,689.506562 C33.984252,688.414698 35.8950131,688.414698 37.1233596,689.506562 L37.1233596,668.488189 C37.1233596,660.299213 39.3070866,655.385827 45.175853,655.385827 C53.5427173,655.385827 55.3713578,666.327344 55.4113945,674.885056 L55.4120735,679.952756 L58.824147,679.952756 L58.824147,650.335958 L4.77690289,650.335958 L4.77690289,679.952756 L8.18897638,679.952756 L8.18897638,675.175853 C8.18897638,666.577428 9.96325459,655.385827 18.4251969,655.385827 C24.2939633,655.385827 26.4776903,660.299213 26.4776903,668.488189 L26.4776903,689.506562 C27.9790026,688.414698 29.8897638,688.414698 31.664042,689.506562 C30.8451444,691.28084 29.343832,694.146982 27.4330709,696.194226 C29.343832,700.698163 30.8451444,706.976378 31.8005249,718.577428 Z M32.0734908,689.370079 L31.664042,689.370079 C30.8451444,684.593176 29.343832,681.863517 27.4330709,679.816273 C29.343832,676.540682 30.8451444,671.627297 31.8005249,661.391076 C32.8923885,671.627297 34.3937008,676.540682 36.167979,679.816273 C34.3937008,681.863517 32.8923885,684.593176 32.0734908,689.370079 Z M120.377953,747.92126 L120.377953,744.782152 L123.244094,747.92126 L159.002625,747.92126 L159.002625,737.548556 L150.131234,725.947507 L150.131234,680.908136 C150.131234,673.538058 152.314961,670.671916 154.771654,670.39895 L159.002625,669.716535 L159.002625,658.934383 L148.902887,645.559055 L73.4278215,645.559055 L73.4278215,658.115486 L77.7952756,658.934383 C80.3884514,659.207349 82.2992126,661.11811 82.2992126,667.396325 L82.2992126,713.937008 C82.2992126,718.713911 81.343832,722.535433 78.7506562,723.081365 L73.4278215,723.900262 L73.4278215,736.456693 L82.1627297,747.92126 L120.377953,747.92126 Z M108.913386,734 L75.8845144,734 L75.8845144,726.220472 L80.2519685,725.538058 C83.5275591,724.855643 84.6194226,720.897638 84.6194226,714.619423 L84.6194226,667.396325 C84.6194226,660.981627 82.9816273,657.023622 80.2519685,656.47769 L75.8845144,655.795276 L75.8845144,648.015748 L108.776903,648.015748 L108.776903,655.795276 L104.545932,656.47769 C101.67979,657.023622 100.041995,660.981627 100.041995,667.396325 L100.041995,683.910761 L122.425197,683.910761 L122.425197,667.396325 C122.425197,660.981627 120.787402,657.023622 117.784777,656.47769 L113.553806,655.795276 L113.553806,648.015748 L146.446194,648.015748 L146.446194,655.795276 L142.215223,656.47769 C139.349081,657.023622 137.711286,660.981627 137.711286,667.396325 L137.711286,714.619423 C137.711286,720.897638 138.80315,724.855643 142.215223,725.538058 L146.446194,726.220472 L146.446194,734 L113.553806,734 L113.553806,726.220472 L117.784777,725.538058 C121.333333,724.855643 122.425197,720.897638 122.425197,714.619423 L122.425197,695.92126 L100.041995,695.92126 L100.041995,714.619423 C100.041995,720.897638 101.133858,724.855643 104.545932,725.538058 L108.913386,726.220472 L108.913386,734 Z M129.931759,718.577428 C130.887139,706.976378 132.524934,700.698163 134.435696,696.194226 C132.524934,694.146982 130.887139,691.28084 130.341207,689.506562 C132.251969,688.414698 134.16273,688.414698 135.254593,689.506562 L135.254593,667.396325 C135.254593,659.480315 137.165354,654.430446 140.577428,653.884514 L144.125984,653.338583 L144.125984,650.335958 L116.010499,650.335958 L116.010499,653.338583 L119.422572,653.884514 C122.971129,654.430446 124.745407,659.480315 124.745407,667.396325 L124.745407,686.367454 L97.5853018,686.367454 L97.5853018,667.396325 C97.5853018,659.480315 99.496063,654.430446 102.908136,653.884514 L106.456693,653.338583 L106.456693,650.335958 L78.2047244,650.335958 L78.2047244,653.338583 L81.7532808,653.884514 C85.1653543,654.430446 87.0761155,659.480315 87.0761155,667.396325 L87.0761155,689.506562 C88.167979,688.414698 90.0787402,688.414698 92.1259843,689.506562 C91.4435696,691.28084 89.9422572,694.146982 87.8950131,696.194226 C89.9422572,700.698163 91.4435696,706.976378 92.3989501,718.577428 C93.3543307,706.976378 94.855643,700.698163 96.7664042,696.194226 C94.855643,694.146982 93.3543307,691.28084 92.5354331,689.506562 C95.8110236,688.414698 98.8136483,688.414698 101.952756,689.506562 C104.955381,688.414698 108.094488,688.414698 111.233596,689.506562 C114.23622,688.414698 117.375328,688.414698 120.377953,689.506562 C123.51706,688.414698 126.656168,688.414698 129.795276,689.506562 C129.112861,691.28084 127.475066,694.146982 125.564304,696.194226 C127.475066,700.698163 129.112861,706.976378 129.931759,718.577428 Z M92.5354331,689.370079 L92.1259843,689.370079 C91.4435696,684.593176 89.9422572,681.863517 87.8950131,679.816273 C89.9422572,676.540682 91.4435696,671.627297 92.3989501,661.391076 C93.3543307,671.627297 94.855643,676.540682 96.7664042,679.816273 C94.855643,681.863517 93.3543307,684.593176 92.5354331,689.370079 Z M130.341207,689.370079 L129.795276,689.370079 C129.112861,684.593176 127.475066,681.863517 125.564304,679.816273 C127.475066,676.540682 129.112861,671.627297 129.931759,661.391076 C130.887139,671.627297 132.524934,676.540682 134.435696,679.816273 C132.524934,681.863517 130.887139,684.593176 130.341207,689.370079 Z M119.968504,681.590551 L112.461942,681.590551 L112.461942,680.225722 C112.461942,673.538058 113.690289,670.535433 116.965879,670.125984 L119.968504,669.716535 L119.968504,681.590551 Z M112.461942,723.900262 L112.461942,709.706037 L119.968504,709.706037 L119.968504,714.619423 C119.968504,720.351706 119.149606,722.671916 117.238845,723.081365 L112.461942,723.900262 Z M227.107612,747.92126 L227.107612,714.892388 L216.461942,700.698163 L209.637795,700.698163 L209.637795,694.55643 L197.627297,678.587927 L197.490814,675.175853 C197.354331,672.582677 198.446194,670.39895 200.766404,670.39895 C202.950131,670.39895 203.632546,672.036745 203.632546,674.902887 L203.632546,679.67979 L212.776903,691.690289 L227.107612,691.690289 L227.107612,659.480315 L216.461942,645.559055 L158.456693,645.559055 L158.456693,658.115486 L162.824147,658.934383 C165.417323,659.207349 167.328084,661.11811 167.328084,667.396325 L167.328084,713.937008 C167.328084,718.713911 166.372703,722.535433 163.779528,723.081365 L158.456693,723.900262 L158.456693,736.456693 L167.191601,747.92126 L227.107612,747.92126 Z M214.551181,734 L160.913386,734 L160.913386,726.220472 L165.28084,725.538058 C168.55643,724.992126 169.648294,720.897638 169.648294,714.619423 L169.648294,667.396325 C169.648294,660.981627 168.010499,657.023622 165.28084,656.47769 L160.913386,655.795276 L160.913386,648.015748 L214.551181,648.015748 L214.551181,677.769029 L205.952756,677.769029 L205.952756,672.036745 C205.952756,661.800525 200.493438,656.47769 194.07874,656.47769 C187.11811,656.47769 185.070866,659.753281 185.070866,666.031496 L185.070866,683.774278 L198.582677,683.774278 L198.582677,693.464567 L185.070866,693.464567 L185.070866,715.847769 C185.070866,721.307087 187.11811,725.265092 194.07874,725.265092 C203.632546,725.265092 205.952756,718.304462 205.952756,709.84252 L205.952756,703.154856 L214.551181,703.154856 L214.551181,734 Z M177.427822,718.577428 C178.383202,706.976378 179.884514,700.698163 181.931759,696.194226 C179.884514,694.146982 178.383202,691.28084 177.564304,689.506562 C180.703412,688.414698 183.979003,688.551181 186.845144,689.643045 C189.574803,688.551181 193.12336,688.414698 196.262467,689.506562 L196.262467,686.230971 L182.614173,686.230971 L182.614173,666.031496 C182.614173,660.16273 184.934383,654.15748 194.07874,654.15748 C200.220472,654.15748 208.409449,657.84252 208.409449,672.036745 L208.409449,675.448819 L212.230971,675.448819 L212.230971,650.335958 L163.233596,650.335958 L163.233596,653.338583 L166.782152,653.884514 C169.238845,654.430446 172.104987,657.023622 172.104987,667.396325 L172.104987,689.506562 C173.333333,688.414698 175.244094,688.414698 177.154856,689.506562 C176.472441,691.28084 174.971129,694.146982 172.923885,696.194226 C174.971129,700.698163 176.472441,706.976378 177.427822,718.577428 Z M177.564304,689.370079 L177.154856,689.370079 C176.472441,684.593176 174.971129,681.863517 172.923885,679.816273 C174.971129,676.540682 176.472441,671.627297 177.427822,661.391076 C178.383202,671.627297 179.884514,676.540682 181.795276,679.816273 C179.884514,681.863517 178.383202,684.593176 177.564304,689.370079 Z M199.401575,720.897638 C198.036745,720.897638 197.490814,718.850394 197.490814,716.666667 L197.490814,707.385827 L203.632546,707.385827 L203.632546,709.569554 C203.632546,717.622047 201.03937,720.897638 199.401575,720.897638 Z M302.71916,747.92126 C318.278215,747.92126 336.703412,729.223097 336.703412,703.154856 C336.703412,670.535433 318.96063,645.559055 296.850394,645.559055 L254.677165,645.559055 L254.677165,658.115486 L259.044619,658.934383 C261.637795,659.207349 263.548556,661.11811 263.548556,667.396325 L263.548556,713.937008 C263.548556,718.713911 262.593176,722.535433 260,723.081365 L254.677165,723.900262 L254.677165,736.456693 L263.412073,747.92126 L302.71916,747.92126 Z M290.845144,734 L257.133858,734 L257.133858,726.220472 L261.501312,725.538058 C264.776903,724.855643 265.868766,720.897638 265.868766,714.619423 L265.868766,667.396325 C265.868766,660.981627 264.230971,657.023622 261.501312,656.47769 L257.133858,655.795276 L257.133858,648.015748 L295.622047,648.015748 C312.409449,648.015748 324.283465,660.16273 324.283465,691.963255 C324.283465,715.301837 310.089239,734 290.845144,734 Z M307.769029,718.577428 C314.047244,711.070866 318.141732,703.973753 319.097113,696.194226 C318.414698,694.010499 316.776903,691.417323 315.275591,689.506562 C318.005249,688.414698 319.91601,688.414698 321.826772,689.506562 C321.28084,673.947507 318.551181,650.335958 295.75853,650.335958 L259.454068,650.335958 L259.454068,653.338583 L263.002625,653.884514 C265.459318,654.430446 268.325459,657.023622 268.325459,667.396325 L268.325459,689.506562 C269.553806,688.414698 271.191601,688.414698 273.238845,689.506562 C272.419948,691.28084 270.918635,694.146982 269.144357,696.194226 C270.918635,700.698163 272.419948,706.976378 273.511811,718.577428 C274.330709,706.976378 275.968504,700.698163 277.879265,696.194226 C275.968504,694.146982 274.330709,691.28084 273.648294,689.506562 C275.559055,688.414698 277.19685,688.414698 278.834646,689.506562 L278.834646,668.07874 C278.834646,661.254593 280.062992,655.385827 285.52231,655.385827 L294.530184,655.385827 C303.128609,655.385827 308.997375,662.346457 308.451444,689.506562 C310.089239,688.414698 312.272966,688.414698 314.729659,689.506562 C314.183727,692.099738 312.136483,694.55643 310.089239,696.194226 C312.272966,702.745407 311.590551,709.84252 307.769029,718.577428 Z M291.800525,724.173228 C301.76378,724.173228 305.858268,703.973753 305.858268,690.598425 C305.858268,663.165354 301.081365,657.706037 295.212598,657.706037 L285.931759,657.706037 C281.564304,657.706037 281.291339,661.800525 281.291339,668.07874 L281.291339,714.619423 C281.291339,720.897638 282.656168,724.173228 285.52231,724.173228 L291.800525,724.173228 Z M273.648294,689.370079 L273.238845,689.370079 C272.419948,684.593176 270.918635,681.863517 269.144357,679.816273 C270.918635,676.540682 272.419948,671.627297 273.511811,661.391076 C274.603675,671.627297 276.104987,676.540682 277.879265,679.816273 C276.104987,681.863517 274.603675,684.593176 273.648294,689.370079 Z M315.275591,689.370079 L314.729659,689.370079 C314.32021,686.230971 312.545932,682.272966 310.089239,679.816273 C312.545932,676.404199 312.545932,671.490814 311.044619,661.391076 C315.821522,670.944882 317.868766,675.858268 319.097113,679.816273 C318.005249,683.091864 316.776903,686.503937 315.275591,689.370079 Z M295.622047,719.669291 C294.257218,719.669291 293.711286,718.440945 293.711286,717.212598 L293.711286,678.041995 C293.711286,674.08399 295.349081,671.627297 297.396325,671.627297 L300.535433,671.627297 C302.582677,671.627297 303.538058,676.677165 303.538058,690.598425 C303.538058,706.703412 297.259843,719.669291 295.622047,719.669291 Z M378.330709,748.740157 C397.301837,748.740157 411.496063,735.774278 411.496063,709.569554 L411.496063,684.456693 C411.496063,667.942257 396.892388,644.740157 370.824147,644.740157 C354.855643,644.740157 340.115486,657.706037 340.115486,678.178478 L340.115486,704.383202 C340.115486,734.272966 358.813648,748.740157 378.330709,748.740157 Z M370.824147,734.818898 C353.76378,734.818898 342.299213,722.535433 342.435696,703.973753 L342.572178,677.905512 C342.572178,661.800525 353.76378,647.060367 370.824147,647.060367 C387.884514,647.060367 398.939633,660.845144 399.076115,677.905512 L399.076115,703.018373 C399.212598,720.215223 388.020997,734.818898 370.824147,734.818898 Z M387.884514,718.577428 C392.251969,708.750656 393.343832,701.244094 394.16273,696.194226 C392.251969,694.010499 390.887139,691.28084 389.931759,689.506562 C392.661417,688.414698 395.391076,688.414698 396.619423,689.506562 L396.619423,677.905512 C396.619423,663.984252 387.338583,649.380577 370.824147,649.380577 C354.173228,649.380577 344.892388,663.984252 344.892388,677.905512 L344.892388,689.506562 C346.120735,688.414698 348.986877,688.414698 351.580052,689.506562 C350.624672,691.28084 349.259843,694.010499 347.349081,696.194226 C348.304462,700.834646 350.215223,708.887139 353.76378,718.577428 C351.989501,709.296588 354.309711,700.698163 356.220472,696.194226 C354.309711,694.010499 352.671916,691.28084 351.989501,689.506562 C354.71916,688.414698 357.448819,688.414698 358.540682,689.506562 L358.540682,671.081365 C358.540682,657.84252 363.727034,653.475066 370.824147,653.475066 C377.784777,653.475066 382.971129,657.84252 382.971129,671.081365 L382.971129,689.506562 C384.062992,688.414698 386.792651,688.414698 389.52231,689.506562 C388.839895,691.28084 387.338583,694.010499 385.291339,696.194226 C387.338583,700.698163 388.839895,708.750656 387.884514,718.577428 Z M370.824147,726.08399 C378.87664,726.08399 380.514436,716.666667 380.514436,707.385827 L380.514436,671.081365 C380.514436,663.43832 378.87664,655.931759 370.824147,655.931759 C362.635171,655.931759 361.133858,663.43832 361.133858,671.081365 L361.133858,707.385827 C361.133858,717.349081 362.635171,726.08399 370.824147,726.08399 Z M351.989501,689.233596 L351.580052,689.233596 C350.761155,684.456693 349.259843,681.863517 347.349081,679.67979 C348.986877,673.265092 351.034121,667.942257 354.855643,661.391076 C353.76378,668.761155 353.76378,674.356955 356.220472,679.67979 C354.309711,681.863517 352.671916,684.456693 351.989501,689.233596 Z M389.931759,689.233596 L389.52231,689.233596 C388.839895,684.456693 387.338583,681.863517 385.291339,679.67979 C387.748031,674.356955 387.748031,667.396325 386.656168,661.391076 C390.614173,667.669291 392.388451,673.401575 394.16273,679.67979 C392.251969,681.863517 390.750656,684.456693 389.931759,689.233596 Z M375.191601,720.215223 C373.826772,720.215223 373.417323,714.073491 373.417323,708.750656 L373.417323,676.540682 C373.417323,669.307087 374.372703,666.577428 376.010499,666.577428 C377.881452,666.577428 378.182141,670.241379 378.193858,675.519213 L378.194226,707.112861 C378.194226,714.48294 377.238845,720.215223 375.191601,720.215223 Z M453.942257,747.92126 L453.942257,735.364829 L446.435696,725.401575 L446.435696,710.251969 L455.44357,735.364829 L464.860892,747.92126 L486.425197,747.92126 L486.425197,680.908136 C486.425197,673.538058 488.472441,670.671916 490.929134,670.39895 L495.160105,669.716535 L495.160105,658.934383 L485.060367,645.559055 L453.942257,645.559055 L453.942257,652.246719 L448.892388,645.559055 L413.952756,645.559055 L413.952756,658.115486 L418.32021,658.934383 C420.913386,659.207349 422.824147,661.11811 422.824147,667.396325 L422.824147,713.937008 C422.824147,718.713911 421.868766,722.535433 419.275591,723.081365 L413.952756,723.900262 L413.952756,736.456693 L422.687664,747.92126 L453.942257,747.92126 Z M441.385827,734 L416.409449,734 L416.409449,726.220472 L420.776903,725.538058 C424.052493,724.855643 425.144357,720.897638 425.144357,714.619423 L425.144357,667.396325 C425.144357,660.981627 423.506562,657.023622 420.776903,656.47769 L416.409449,655.795276 L416.409449,648.015748 L446.981627,648.015748 L464.997375,697.013123 L465.133858,697.013123 L465.133858,667.396325 C465.133858,660.981627 463.496063,657.023622 460.766404,656.47769 L456.39895,655.795276 L456.39895,648.015748 L482.603675,648.015748 L482.603675,655.795276 L478.372703,656.47769 C475.506562,657.023622 473.868766,660.981627 473.868766,667.396325 L473.868766,734 L458.036745,734 L434.152231,667.396325 L433.879265,667.396325 L433.879265,714.619423 C433.879265,720.897638 434.971129,724.71916 438.383202,725.538058 L441.385827,726.220472 L441.385827,734 Z M471.412073,689.506562 L471.412073,667.396325 C471.412073,657.023622 474.278215,654.430446 476.734908,653.884514 L480.283465,653.338583 L480.283465,650.335958 L458.71916,650.335958 L458.71916,653.338583 L462.267717,653.884514 C464.724409,654.430446 467.590551,657.023622 467.590551,667.396325 L467.590551,689.506562 C468.545932,688.414698 470.593176,688.414698 471.412073,689.506562 Z M461.858268,718.577428 C459.538058,706.839895 458.71916,700.971129 458.446194,696.194226 C455.580052,693.60105 453.532808,691.28084 452.167979,689.506562 C454.351706,688.414698 456.671916,688.414698 459.265092,689.506562 L444.934383,650.335958 L418.729659,650.335958 L418.729659,653.338583 L422.278215,653.884514 C424.734908,654.430446 427.60105,657.023622 427.60105,667.396325 L427.60105,689.506562 C428.692913,688.414698 430.330709,688.414698 431.559055,689.506562 L431.559055,667.12336 C431.559055,665.076115 431.832021,663.028871 433.469816,663.028871 C435.244094,663.028871 436.062992,664.530184 436.88189,666.986877 L445.070866,689.506562 C446.708661,688.414698 448.892388,688.414698 451.75853,689.506562 C451.75853,691.28084 451.076115,693.737533 449.984252,696.194226 C453.12336,700.971129 456.671916,707.249344 461.858268,718.577428 Z M452.167979,689.370079 L451.75853,689.370079 C448.755906,684.593176 446.572178,681.863517 443.433071,679.816273 C444.251969,675.03937 443.296588,669.44357 440.703412,660.299213 C445.343832,669.307087 448.619423,674.629921 452.304462,678.997375 C452.183144,681.545057 452.169664,683.9849 452.168166,687.850606 L452.167979,689.370079 L452.167979,689.370079 Z M542.656168,747.92126 C558.215223,747.92126 576.64042,729.223097 576.64042,703.154856 C576.64042,670.535433 558.897638,645.559055 536.787402,645.559055 L494.614173,645.559055 L494.614173,658.115486 L498.981627,658.934383 C501.574803,659.207349 503.485564,661.11811 503.485564,667.396325 L503.485564,713.937008 C503.485564,718.713911 502.530184,722.535433 499.937008,723.081365 L494.614173,723.900262 L494.614173,736.456693 L503.349081,747.92126 L542.656168,747.92126 Z M530.782152,734 L497.070866,734 L497.070866,726.220472 L501.43832,725.538058 C504.713911,724.855643 505.805774,720.897638 505.805774,714.619423 L505.805774,667.396325 C505.805774,660.981627 504.167979,657.023622 501.43832,656.47769 L497.070866,655.795276 L497.070866,648.015748 L535.559055,648.015748 C552.346457,648.015748 564.220472,660.16273 564.220472,691.963255 C564.220472,715.301837 550.026247,734 530.782152,734 Z M547.706037,718.577428 C553.984252,711.070866 558.07874,703.973753 559.034121,696.194226 C558.351706,694.010499 556.713911,691.417323 555.212598,689.506562 C557.942257,688.414698 559.853018,688.414698 561.76378,689.506562 C561.217848,673.947507 558.488189,650.335958 535.695538,650.335958 L499.391076,650.335958 L499.391076,653.338583 L502.939633,653.884514 C505.396325,654.430446 508.262467,657.023622 508.262467,667.396325 L508.262467,689.506562 C509.490814,688.414698 511.128609,688.414698 513.175853,689.506562 C512.356955,691.28084 510.855643,694.146982 509.081365,696.194226 C510.855643,700.698163 512.356955,706.976378 513.448819,718.577428 C514.267717,706.976378 515.905512,700.698163 517.816273,696.194226 C515.905512,694.146982 514.267717,691.28084 513.585302,689.506562 C515.496063,688.414698 517.133858,688.414698 518.771654,689.506562 L518.771654,668.07874 C518.771654,661.254593 520,655.385827 525.459318,655.385827 L534.467192,655.385827 C543.065617,655.385827 548.934383,662.346457 548.388451,689.506562 C550.026247,688.414698 552.209974,688.414698 554.666667,689.506562 C554.120735,692.099738 552.073491,694.55643 550.026247,696.194226 C552.209974,702.745407 551.527559,709.84252 547.706037,718.577428 Z M531.737533,724.173228 C541.700787,724.173228 545.795276,703.973753 545.795276,690.598425 C545.795276,663.165354 541.018373,657.706037 535.149606,657.706037 L525.868766,657.706037 C521.501312,657.706037 521.228346,661.800525 521.228346,668.07874 L521.228346,714.619423 C521.228346,720.897638 522.593176,724.173228 525.459318,724.173228 L531.737533,724.173228 Z M513.585302,689.370079 L513.175853,689.370079 C512.356955,684.593176 510.855643,681.863517 509.081365,679.816273 C510.855643,676.540682 512.356955,671.627297 513.448819,661.391076 C514.540682,671.627297 516.041995,676.540682 517.816273,679.816273 C516.041995,681.863517 514.540682,684.593176 513.585302,689.370079 Z M555.212598,689.370079 L554.666667,689.370079 C554.257218,686.230971 552.48294,682.272966 550.026247,679.816273 C552.48294,676.404199 552.48294,671.490814 550.981627,661.391076 C555.75853,670.944882 557.805774,675.858268 559.034121,679.816273 C557.942257,683.091864 556.713911,686.503937 555.212598,689.370079 Z M535.559055,719.669291 C534.194226,719.669291 533.648294,718.440945 533.648294,717.212598 L533.648294,678.041995 C533.648294,674.08399 535.286089,671.627297 537.333333,671.627297 L540.472441,671.627297 C542.519685,671.627297 543.475066,676.677165 543.475066,690.598425 C543.475066,706.703412 537.19685,719.669291 535.559055,719.669291 Z M645.700787,747.92126 L645.700787,714.892388 L635.055118,700.698163 L628.230971,700.698163 L628.230971,694.55643 L616.220472,678.587927 L616.08399,675.175853 C615.947507,672.582677 617.03937,670.39895 619.35958,670.39895 C621.543307,670.39895 622.225722,672.036745 622.225722,674.902887 L622.225722,679.67979 L631.370079,691.690289 L645.700787,691.690289 L645.700787,659.480315 L635.055118,645.559055 L577.049869,645.559055 L577.049869,658.115486 L581.417323,658.934383 C584.010499,659.207349 585.92126,661.11811 585.92126,667.396325 L585.92126,713.937008 C585.92126,718.713911 584.965879,722.535433 582.372703,723.081365 L577.049869,723.900262 L577.049869,736.456693 L585.784777,747.92126 L645.700787,747.92126 Z M633.144357,734 L579.506562,734 L579.506562,726.220472 L583.874016,725.538058 C587.149606,724.992126 588.24147,720.897638 588.24147,714.619423 L588.24147,667.396325 C588.24147,660.981627 586.603675,657.023622 583.874016,656.47769 L579.506562,655.795276 L579.506562,648.015748 L633.144357,648.015748 L633.144357,677.769029 L624.545932,677.769029 L624.545932,672.036745 C624.545932,661.800525 619.086614,656.47769 612.671916,656.47769 C605.711286,656.47769 603.664042,659.753281 603.664042,666.031496 L603.664042,683.774278 L617.175853,683.774278 L617.175853,693.464567 L603.664042,693.464567 L603.664042,715.847769 C603.664042,721.307087 605.711286,725.265092 612.671916,725.265092 C622.225722,725.265092 624.545932,718.304462 624.545932,709.84252 L624.545932,703.154856 L633.144357,703.154856 L633.144357,734 Z M596.020997,718.577428 C596.976378,706.976378 598.47769,700.698163 600.524934,696.194226 C598.47769,694.146982 596.976378,691.28084 596.15748,689.506562 C599.296588,688.414698 602.572178,688.551181 605.43832,689.643045 C608.167979,688.551181 611.716535,688.414698 614.855643,689.506562 L614.855643,686.230971 L601.207349,686.230971 L601.207349,666.031496 C601.207349,660.16273 603.527559,654.15748 612.671916,654.15748 C618.813648,654.15748 627.002625,657.84252 627.002625,672.036745 L627.002625,675.448819 L630.824147,675.448819 L630.824147,650.335958 L581.826772,650.335958 L581.826772,653.338583 L585.375328,653.884514 C587.832021,654.430446 590.698163,657.023622 590.698163,667.396325 L590.698163,689.506562 C591.926509,688.414698 593.83727,688.414698 595.748031,689.506562 C595.065617,691.28084 593.564304,694.146982 591.51706,696.194226 C593.564304,700.698163 595.065617,706.976378 596.020997,718.577428 Z M596.15748,689.370079 L595.748031,689.370079 C595.065617,684.593176 593.564304,681.863517 591.51706,679.816273 C593.564304,676.540682 595.065617,671.627297 596.020997,661.391076 C596.976378,671.627297 598.47769,676.540682 600.388451,679.816273 C598.47769,681.863517 596.976378,684.593176 596.15748,689.370079 Z M617.994751,720.897638 C616.629921,720.897638 616.08399,718.850394 616.08399,716.666667 L616.08399,707.385827 L622.225722,707.385827 L622.225722,709.569554 C622.225722,717.622047 619.632546,720.897638 617.994751,720.897638 Z" id="thedonde" fill="#03AD25" fill-rule="nonzero"></path>
                <g id="Group-2-Copy" transform="translate(115.039370, 0.000000)">
                    <path d="M198.283048,588.634977 C221.936349,588.634977 238.438652,571.582597 238.438652,547.929296 C238.438652,528.676608 231.287654,512.174305 219.736042,498.972462 C217.535735,459.917011 228.53727,421.411637 258.241416,395.007952 C284.095025,371.904727 309.948633,348.251426 309.948633,308.645898 C309.948633,234.385533 236.788422,173.327011 163.628211,173.327011 C118.521915,173.327011 53.062779,202.48108 53.062779,271.240677 C53.062779,310.296128 64.6143913,330.648969 88.8177694,351.551887 C106.420226,366.40396 122.92253,383.45634 122.92253,395.558029 L122.92253,440.664324 L132.823912,455.516397 C121.272299,461.567242 113.571224,476.969391 113.571224,495.121925 C113.571224,543.528681 162.528057,588.634977 198.283048,588.634977 Z M176.279977,431.313019 L132.823912,431.313019 L132.823912,404.359257 C132.823912,344.400888 194.43251,317.447126 194.43251,270.140524 C194.43251,242.086608 181.780745,217.88323 149.326215,217.88323 C119.622069,217.88323 108.070457,243.186762 108.070457,255.838528 C108.070457,263.539602 112.471071,268.490293 121.272299,269.590447 C135.574295,271.790754 147.125908,283.342366 147.125908,301.4949 C147.125908,319.647434 130.073528,338.900121 108.620533,338.900121 C80.5666178,338.900121 62.964161,310.846205 62.964161,270.140524 C62.964161,212.932539 112.471071,183.228393 163.628211,183.228393 C215.335428,183.228393 259.34157,212.382462 259.34157,263.539602 C259.34157,303.695207 238.988729,328.998739 219.736042,346.051119 C198.283048,364.753729 176.830054,375.205188 176.279977,431.313019 Z M154.826983,427.462482 C157.577366,410.410102 162.528057,397.758336 172.429439,387.306877 C169.128979,375.205188 171.329286,366.40396 180.130514,350.451733 C187.831589,346.051119 193.882434,346.051119 199.933278,350.451733 C226.336963,331.199046 249.440188,302.044977 249.440188,264.639756 C249.440188,219.53346 215.335428,192.579698 163.628211,192.579698 C98.1690746,192.579698 72.3154662,234.93561 72.3154662,270.140524 C72.3154662,307.545745 89.3678462,328.998739 108.620533,328.998739 C122.372453,328.998739 137.774602,315.796896 137.774602,301.4949 C137.774602,291.043441 129.523451,281.142059 121.272299,279.491829 C105.320073,276.191368 98.7191514,269.04037 98.7191514,255.838528 C98.7191514,237.685994 114.671378,208.531925 149.326215,208.531925 C189.481819,208.531925 204.333892,236.58584 204.333892,270.140524 C204.333892,299.613637 183.919883,322.768129 163.194803,346.000389 L160.548908,348.967124 L160.548908,348.967124 L159.227597,350.451733 L159.227597,350.451733 C167.478748,346.051119 174.07967,346.051119 179.030361,350.451733 C165.828518,361.453269 153.176752,371.904727 144.375524,387.306877 C149.876292,399.958643 150.976445,410.410102 154.826983,427.462482 Z M180.130514,349.901656 L179.030361,349.901656 C189.481819,336.149737 193.332357,325.148201 194.982587,313.046512 C209.284583,303.14513 225.23681,287.192904 221.936349,237.135917 C232.937885,266.840063 234.588115,291.593518 230.187501,313.046512 C217.535735,325.148201 195.532664,340.000274 180.130514,349.901656 Z M155.377059,531.977069 C138.324679,531.977069 123.472606,516.024843 123.472606,495.121925 C123.472606,474.769084 137.774602,458.266781 154.826983,458.266781 C171.879363,458.266781 187.281512,474.769084 187.281512,495.121925 C187.281512,516.024843 172.429439,531.977069 155.377059,531.977069 Z" id="?" fill="#03AD25" fill-rule="nonzero"></path>
                    <g id="Group" transform="translate(214.120220, 138.123533) rotate(-345.000000) translate(-214.120220, -138.123533) translate(17.120220, 48.123533)">
                        <polygon id="Path-2" fill="#FFFFFF" points="92.7044011 116.732595 96.045587 161.189858 313.249094 161.189858 308.44887 116.732595"></polygon>
                        <g id="icons8-sombrero" transform="translate(0.000000, -0.000000)" fill="#03AD25" fill-rule="nonzero">
                            <path d="M197.257159,0.623466135 C163.804319,0.623466135 136.734693,49.9284704 136.734693,83.3896477 C136.734693,83.3896477 147.90534,89.5379926 197.257159,89.5379926 C246.608978,89.5379926 257.779625,83.3896477 257.779625,83.3896477 C257.779625,49.9284704 230.710014,0.623466135 197.257159,0.623466135 Z M2.45047113,90.4838918 C-2.51426242,90.4838918 2.45047113,112.594294 15.6897606,133.049357 C19.3542143,130.270774 23.9643165,127.846911 30.8203771,127.846911 C41.5181921,127.846911 47.0148727,133.640551 51.1521431,137.778853 C54.875697,141.503335 56.8261243,142.981298 61.0816102,142.981298 C65.3370961,142.981298 67.2875233,141.503335 71.0110773,137.778853 C75.1483628,133.640551 80.6450283,127.846911 91.3428432,127.846911 C102.040658,127.846911 107.537339,133.640551 111.674609,137.778853 C115.398163,141.503335 117.34859,142.981298 121.604076,142.981298 C125.859562,142.981298 127.809989,141.503335 131.533543,137.778853 C135.670829,133.640551 141.167494,127.846911 151.865309,127.846911 C162.563124,127.846911 168.059805,133.640551 172.197075,137.778853 C175.920629,141.503335 177.871056,142.981298 182.126542,142.981298 C186.382028,142.981298 188.332456,141.503335 192.056009,137.778853 C196.193295,133.640551 201.689961,127.846911 212.387775,127.846911 C223.08559,127.846911 228.582271,133.640551 232.719541,137.778853 C236.443095,141.503335 238.393523,142.981298 242.649009,142.981298 C246.904494,142.981298 248.854922,141.503335 252.578476,137.778853 C256.715761,133.640551 262.212427,127.846911 272.910242,127.846911 C283.608056,127.846911 289.104737,133.640551 293.242008,137.778853 C296.965561,141.503335 298.915989,142.981298 303.171475,142.981298 C307.426961,142.981298 309.377388,141.503335 313.100942,137.778853 C317.238227,133.640551 322.734893,127.846911 333.432708,127.846911 C344.130523,127.846911 349.627203,133.640551 353.764474,137.778853 C357.488028,141.503335 359.438455,142.981298 363.693941,142.981298 C367.949427,142.981298 369.899854,141.503335 373.623408,137.778853 C374.09624,137.305903 374.569071,136.832953 375.041903,136.360004 C390.704452,115.018157 397.383212,90.4838918 392.063847,90.4838918 C392.063847,90.4838918 288.336374,105.618279 197.257159,105.618279 C106.177944,105.618279 2.45047113,90.4838918 2.45047113,90.4838918 Z M30.8203771,142.981298 C28.2198024,142.981298 26.4466908,143.513363 24.6735642,144.873097 C33.3618516,154.686809 44.5915985,162.845182 57.7717878,165.68288 C57.7717878,165.68288 107.419123,179.398418 197.257159,179.398418 C287.095195,179.398418 336.74253,165.68288 336.74253,165.68288 C343.303075,163.731966 349.154371,160.716909 354.710137,156.696837 C349.449888,154.745924 346.140065,150.962327 343.362175,148.183744 C339.638621,144.459262 337.688194,142.981298 333.432708,142.981298 C329.177222,142.981298 327.226795,144.459262 323.503241,148.183744 C319.36597,152.322061 313.86929,158.115686 303.171475,158.115686 C292.47366,158.115686 286.976994,152.322061 282.839709,148.183744 C279.116155,144.459262 277.165727,142.981298 272.910242,142.981298 C268.654756,142.981298 266.704328,144.459262 262.980774,148.183744 C258.843504,152.322061 253.346823,158.115686 242.649009,158.115686 C231.951194,158.115686 226.454528,152.322061 222.317243,148.183744 C218.593689,144.459262 216.643261,142.981298 212.387775,142.981298 C208.13229,142.981298 206.181862,144.459262 202.458308,148.183744 C198.321038,152.322061 192.824357,158.115686 182.126542,158.115686 C171.428727,158.115686 165.932062,152.322061 161.794776,148.183744 C158.071222,144.459262 156.120795,142.981298 151.865309,142.981298 C147.609823,142.981298 145.659396,144.459262 141.935842,148.183744 C137.798572,152.322061 132.301891,158.115686 121.604076,158.115686 C110.906261,158.115686 105.409596,152.322061 101.27231,148.183744 C97.5487564,144.459262 95.5983291,142.981298 91.3428432,142.981298 C87.0873573,142.981298 85.1369301,144.459262 81.4133761,148.183744 C77.2761057,152.322061 71.7794251,158.115686 61.0816102,158.115686 C50.3837952,158.115686 44.8871297,152.322061 40.7498442,148.183744 C37.0262903,144.459262 35.075863,142.981298 30.8203771,142.981298 Z" id="Shape"></path>
                        </g>
                    </g>
                </g>
            </g>
        </g>
    </g>
</svg>