<?xml version="1.0" encoding="UTF-8"?>
<svg width="1000px" height="1000px" viewBox="0 0 1000 1000" version="1.1" xmlns="http://www.w3.org/2000/svg" xmlns:xlink="http://www.w3.org/1999/xlink">
    <title>The Donde Logo and Wordmark</title>
    <g id="The-Donde-Logo-and-Wordmark" stroke="none" stroke-width="1" fill="none" fill-rule="evenodd">
        <text id="the-donde" font-family="RosewoodStd-Regular, Rosewood Std" font-size="136.48294" font-weight="bold" fill="#03AD25">
            <tspan x="175" y="838">the donde</tspan>
        </text>
        <g id="Group-2-Copy" transform="translate(297.000000, 104.000000)">
            <path d="M198.283048,588.634977 C221.936349,588.634977 238.438652,571.582597 238.438652,547.929296 C238.438652,528.676608 231.287654,512.174305 219.736042,498.972462 C217.535735,459.917011 228.53727,421.411637 258.241416,395.007952 C284.095025,371.904727 309.948633,348.251426 309.948633,308.645898 C309.948633,234.385533 236.788422,173.327011 163.628211,173.327011 C118.521915,173.327011 53.062779,202.48108 53.062779,271.240677 C53.062779,310.296128 64.6143913,330.648969 88.8177694,351.551887 C106.420226,366.40396 122.92253,383.45634 122.92253,395.558029 L122.92253,440.664324 L132.823912,455.516397 C121.272299,461.567242 113.571224,476.969391 113.571224,495.121925 C113.571224,543.528681 162.528057,588.634977 198.283048,588.634977 Z M176.279977,431.313019 L132.823912,431.313019 L132.823912,404.359257 C132.823912,344.400888 194.43251,317.447126 194.43251,270.140524 C194.43251,242.086608 181.780745,217.88323 149.326215,217.88323 C119.622069,217.88323 108.070457,243.186762 108.070457,255.838528 C108.070457,263.539602 112.471071,268.490293 121.272299,269.590447 C135.574295,271.790754 147.125908,283.342366 147.125908,301.4949 C147.125908,319.647434 130.073528,338.900121 108.620533,338.900121 C80.5666178,338.900121 62.964161,310.846205 62.964161,270.140524 C62.964161,212.932539 112.471071,183.228393 163.628211,183.228393 C215.335428,183.228393 259.34157,212.382462 259.34157,263.539602 C259.34157,303.695207 238.988729,328.998739 219.736042,346.051119 C198.283048,364.753729 176.830054,375.205188 176.279977,431.313019 Z M154.826983,427.462482 C157.577366,410.410102 162.528057,397.758336 172.429439,387.306877 C169.128979,375.205188 171.329286,366.40396 180.130514,350.451733 C187.831589,346.051119 193.882434,346.051119 199.933278,350.451733 C226.336963,331.199046 249.440188,302.044977 249.440188,264.639756 C249.440188,219.53346 215.335428,192.579698 163.628211,192.579698 C98.1690746,192.579698 72.3154662,234.93561 72.3154662,270.140524 C72.3154662,307.545745 89.3678462,328.998739 108.620533,328.998739 C122.372453,328.998739 137.774602,315.796896 137.774602,301.4949 C137.774602,291.043441 129.523451,281.142059 121.272299,279.491829 C105.320073,276.191368 98.7191514,269.04037 98.7191514,255.838528 C98.7191514,237.685994 114.671378,208.531925 149.326215,208.531925 C189.481819,208.531925 204.333892,236.58584 204.333892,270.140524 C204.333892,299.613637 183.919883,322.768129 163.194803,346.000389 L160.548908,348.967124 L160.548908,348.967124 L159.227597,350.451733 L159.227597,350.451733 C167.478748,346.051119 174.07967,346.051119 179.030361,350.451733 C165.828518,361.453269 153.176752,371.904727 144.375524,387.306877 C149.876292,399.958643 150.976445,410.410102 154.826983,427.462482 Z M180.130514,349.901656 L179.030361,349.901656 C189.481819,336.149737 193.332357,325.148201 194.982587,313.046512 C209.284583,303.14513 225.23681,287.192904 221.936349,237.135917 C232.937885,266.840063 234.588115,291.593518 230.187501,313.046512 C217.535735,325.148201 195.532664,340.000274 180.130514,349.901656 Z M155.377059,531.977069 C138.324679,531.977069 123.472606,516.024843 123.472606,495.121925 C123.472606,474.769084 137.774602,458.266781 154.826983,458.266781 C171.879363,458.266781 187.281512,474.769084 187.281512,495.121925 C187.281512,516.024843 172.429439,531.977069 155.377059,531.977069 Z" id="?" fill="#03AD25" fill-rule="nonzero"></path>
            <g id="Group" transform="translate(214.120220, 138.123533) rotate(-345.000000) translate(-214.120220, -138.123533) translate(17.120220, 48.123533)">
                <polygon id="Path-2" fill="#FFFFFF" points="92.7044011 116.732595 96.045587 161.189858 313.249094 161.189858 308.44887 116.732595"></polygon>
                <g id="icons8-sombrero" transform="translate(0.000000, -0.000000)" fill="#03AD25" fill-rule="nonzero">
                    <path d="M197.257159,0.623466135 C163.804319,0.623466135 136.734693,49.9284704 136.734693,83.3896477 C136.734693,83.3896477 147.90534,89.5379926 197.257159,89.5379926 C246.608978,89.5379926 257.779625,83.3896477 257.779625,83.3896477 C257.779625,49.9284704 230.710014,0.623466135 197.257159,0.623466135 Z M2.45047113,90.4838918 C-2.51426242,90.4838918 2.45047113,112.594294 15.6897606,133.049357 C19.3542143,130.270774 23.9643165,127.846911 30.8203771,127.846911 C41.5181921,127.846911 47.0148727,133.640551 51.1521431,137.778853 C54.875697,141.503335 56.8261243,142.981298 61.0816102,142.981298 C65.3370961,142.981298 67.2875233,141.503335 71.0110773,137.778853 C75.1483628,133.640551 80.6450283,127.846911 91.3428432,127.846911 C102.040658,127.846911 107.537339,133.640551 111.674609,137.778853 C115.398163,141.503335 117.34859,142.981298 121.604076,142.981298 C125.859562,142.981298 127.809989,141.503335 131.533543,137.778853 C135.670829,133.640551 141.167494,127.846911 151.865309,127.846911 C162.563124,127.846911 168.059805,133.640551 172.197075,137.778853 C175.920629,141.503335 177.871056,142.981298 182.126542,142.981298 C186.382028,142.981298 188.332456,141.503335 192.056009,137.778853 C196.193295,133.640551 201.689961,127.846911 212.387775,127.846911 C223.08559,127.846911 228.582271,133.640551 232.719541,137.778853 C236.443095,141.503335 238.393523,142.981298 242.649009,142.981298 C246.904494,142.981298 248.854922,141.503335 252.578476,137.778853 C256.715761,133.640551 262.212427,127.846911 272.910242,127.846911 C283.608056,127.846911 289.104737,133.640551 293.242008,137.778853 C296.965561,141.503335 298.915989,142.981298 303.171475,142.981298 C307.426961,142.981298 309.377388,141.503335 313.100942,137.778853 C317.238227,133.640551 322.734893,127.846911 333.432708,127.846911 C344.130523,127.846911 349.627203,133.640551 353.764474,137.778853 C357.488028,141.503335 359.438455,142.981298 363.693941,142.981298 C367.949427,142.981298 369.899854,141.503335 373.623408,137.778853 C374.09624,137.305903 374.569071,136.832953 375.041903,136.360004 C390.704452,115.018157 397.383212,90.4838918 392.063847,90.4838918 C392.063847,90.4838918 288.336374,105.618279 197.257159,105.618279 C106.177944,105.618279 2.45047113,90.4838918 2.45047113,90.4838918 Z M30.8203771,142.981298 C28.2198024,142.981298 26.4466908,143.513363 24.6735642,144.873097 C33.3618516,154.686809 44.5915985,162.845182 57.7717878,165.68288 C57.7717878,165.68288 107.419123,179.398418 197.257159,179.398418 C287.095195,179.398418 336.74253,165.68288 336.74253,165.68288 C343.303075,163.731966 349.154371,160.716909 354.710137,156.696837 C349.449888,154.745924 346.140065,150.962327 343.362175,148.183744 C339.638621,144.459262 337.688194,142.981298 333.432708,142.981298 C329.177222,142.981298 327.226795,144.459262 323.503241,148.183744 C319.36597,152.322061 313.86929,158.115686 303.171475,158.115686 C292.47366,158.115686 286.976994,152.322061 282.839709,148.183744 C279.116155,144.459262 277.165727,142.981298 272.910242,142.981298 C268.654756,142.981298 266.704328,144.459262 262.980774,148.183744 C258.843504,152.322061 253.346823,158.115686 242.649009,158.115686 C231.951194,158.115686 226.454528,152.322061 222.317243,148.183744 C218.593689,144.459262 216.643261,142.981298 212.387775,142.981298 C208.13229,142.981298 206.181862,144.459262 202.458308,148.183744 C198.321038,152.322061 192.824357,158.115686 182.126542,158.115686 C171.428727,158.115686 165.932062,152.322061 161.794776,148.183744 C158.071222,144.459262 156.120795,142.981298 151.865309,142.981298 C147.609823,142.981298 145.659396,144.459262 141.935842,148.183744 C137.798572,152.322061 132.301891,158.115686 121.604076,158.115686 C110.906261,158.115686 105.409596,152.322061 101.27231,148.183744 C97.5487564,144.459262 95.5983291,142.981298 91.3428432,142.981298 C87.0873573,142.981298 85.1369301,144.459262 81.4133761,148.183744 C77.2761057,152.322061 71.7794251,158.115686 61.0816102,158.115686 C50.3837952,158.115686 44.8871297,152.322061 40.7498442,148.183744 C37.0262903,144.459262 35.075863,142.981298 30.8203771,142.981298 Z" id="Shape"></path>
                </g>
            </g>
        </g>
    </g>
</svg>